<?xml version="1.0" encoding="UTF-8" standalone="no"?>
<!DOCTYPE svg PUBLIC "-//W3C//DTD SVG 1.1//EN" "http://www.w3.org/Graphics/SVG/1.1/DTD/svg11.dtd">
<svg width="100%" height="100%" viewBox="0 0 848 306" version="1.1" xmlns="http://www.w3.org/2000/svg" xmlns:xlink="http://www.w3.org/1999/xlink" xml:space="preserve" xmlns:serif="http://www.serif.com/" style="fill-rule:evenodd;clip-rule:evenodd;stroke-linejoin:round;stroke-miterlimit:2;">
    <g transform="matrix(1.00263,0,0,0.766909,-79.214,-327.915)">
        <rect x="320.419" y="764.14" width="362.299" height="62.103" style="fill:rgb(63,63,63);"/>
    </g>
    <g transform="matrix(1,0,0,1,-68.1392,-108.657)">
        <g transform="matrix(41.6667,0,0,41.6667,371.835,404.832)">
            <path d="M0.562,-0.162C0.562,-0.159 0.561,-0.143 0.56,-0.113C0.559,-0.083 0.558,-0.054 0.558,-0.027L0.558,0.006C0.493,0.003 0.363,0.001 0.17,0.001C0.147,0.001 0.124,0.001 0.101,0.002L0.045,0.002C0.032,0.002 0.026,-0.001 0.026,-0.007C0.026,-0.011 0.028,-0.013 0.032,-0.014C0.034,-0.014 0.047,-0.015 0.07,-0.017C0.087,-0.018 0.098,-0.022 0.102,-0.028C0.105,-0.034 0.107,-0.05 0.107,-0.075L0.107,-0.637C0.107,-0.656 0.104,-0.668 0.099,-0.672C0.093,-0.675 0.075,-0.677 0.044,-0.677C0.033,-0.677 0.028,-0.68 0.028,-0.686C0.028,-0.692 0.035,-0.695 0.05,-0.695L0.221,-0.694C0.227,-0.694 0.265,-0.694 0.334,-0.695L0.474,-0.695C0.494,-0.695 0.512,-0.696 0.529,-0.699C0.53,-0.67 0.533,-0.631 0.538,-0.58L0.542,-0.537C0.543,-0.534 0.543,-0.529 0.543,-0.524C0.543,-0.517 0.54,-0.514 0.534,-0.514C0.527,-0.514 0.521,-0.522 0.518,-0.539C0.505,-0.599 0.485,-0.637 0.456,-0.653C0.435,-0.665 0.379,-0.671 0.288,-0.671L0.206,-0.671L0.206,-0.378L0.23,-0.378C0.305,-0.378 0.35,-0.384 0.367,-0.395C0.383,-0.406 0.394,-0.439 0.4,-0.494C0.401,-0.508 0.405,-0.515 0.411,-0.515C0.418,-0.515 0.422,-0.509 0.422,-0.497C0.422,-0.485 0.421,-0.467 0.42,-0.444C0.419,-0.421 0.418,-0.403 0.418,-0.391C0.418,-0.32 0.419,-0.271 0.422,-0.244C0.423,-0.237 0.423,-0.232 0.423,-0.227C0.423,-0.218 0.419,-0.214 0.412,-0.214C0.407,-0.214 0.404,-0.217 0.403,-0.223C0.401,-0.228 0.398,-0.247 0.394,-0.278C0.389,-0.317 0.372,-0.342 0.345,-0.351C0.333,-0.355 0.302,-0.357 0.251,-0.357L0.206,-0.357L0.206,-0.021C0.353,-0.021 0.439,-0.024 0.464,-0.03C0.508,-0.04 0.533,-0.083 0.539,-0.158C0.54,-0.175 0.545,-0.183 0.552,-0.183C0.559,-0.183 0.562,-0.176 0.562,-0.162Z" style="fill:white;fill-rule:nonzero;"/>
        </g>
        <g transform="matrix(41.6667,0,0,41.6667,404.418,404.832)">
            <path d="M0.469,-0.195C0.469,-0.138 0.447,-0.089 0.404,-0.049C0.36,-0.008 0.307,0.012 0.246,0.012C0.21,0.012 0.167,0.001 0.117,-0.021C0.104,-0.027 0.094,-0.03 0.087,-0.03C0.079,-0.03 0.074,-0.02 0.072,-0.001C0.071,0.009 0.067,0.014 0.059,0.014C0.052,0.014 0.049,0.01 0.049,0.002C0.049,-0.003 0.049,-0.007 0.05,-0.01C0.055,-0.051 0.058,-0.088 0.058,-0.123C0.058,-0.13 0.057,-0.148 0.056,-0.179C0.055,-0.183 0.055,-0.188 0.055,-0.195C0.055,-0.205 0.059,-0.21 0.067,-0.21C0.074,-0.21 0.078,-0.202 0.081,-0.186C0.098,-0.067 0.155,-0.008 0.25,-0.008C0.291,-0.008 0.322,-0.02 0.345,-0.043C0.367,-0.066 0.378,-0.098 0.378,-0.14C0.378,-0.177 0.367,-0.209 0.346,-0.236C0.324,-0.262 0.287,-0.288 0.234,-0.314C0.171,-0.345 0.127,-0.376 0.102,-0.405C0.077,-0.434 0.065,-0.471 0.065,-0.514C0.065,-0.569 0.083,-0.615 0.119,-0.651C0.154,-0.687 0.199,-0.705 0.254,-0.705C0.277,-0.705 0.308,-0.697 0.348,-0.682C0.362,-0.677 0.372,-0.674 0.379,-0.674C0.386,-0.674 0.391,-0.675 0.394,-0.678C0.396,-0.681 0.398,-0.688 0.4,-0.699C0.401,-0.706 0.405,-0.709 0.411,-0.709C0.418,-0.709 0.421,-0.705 0.421,-0.697C0.421,-0.692 0.421,-0.688 0.42,-0.685C0.418,-0.669 0.417,-0.65 0.417,-0.627C0.417,-0.595 0.419,-0.57 0.422,-0.551L0.423,-0.535C0.424,-0.528 0.421,-0.524 0.414,-0.524C0.407,-0.524 0.402,-0.532 0.399,-0.547C0.392,-0.586 0.374,-0.619 0.347,-0.646C0.32,-0.672 0.289,-0.685 0.255,-0.685C0.222,-0.685 0.195,-0.674 0.176,-0.653C0.156,-0.632 0.146,-0.603 0.146,-0.566C0.146,-0.523 0.16,-0.489 0.189,-0.463C0.205,-0.448 0.24,-0.428 0.293,-0.401C0.356,-0.37 0.401,-0.338 0.428,-0.306C0.455,-0.273 0.469,-0.236 0.469,-0.195Z" style="fill:white;fill-rule:nonzero;"/>
        </g>
        <g transform="matrix(41.6667,0,0,41.6667,433.502,404.832)">
            <path d="M0.571,-0.517C0.571,-0.508 0.567,-0.504 0.559,-0.504C0.551,-0.504 0.545,-0.513 0.542,-0.53C0.541,-0.542 0.539,-0.554 0.538,-0.566C0.533,-0.59 0.526,-0.61 0.515,-0.627C0.501,-0.649 0.478,-0.663 0.446,-0.669C0.425,-0.673 0.409,-0.675 0.396,-0.674C0.365,-0.673 0.346,-0.672 0.339,-0.671L0.339,-0.068C0.339,-0.044 0.345,-0.029 0.358,-0.023C0.365,-0.02 0.383,-0.018 0.414,-0.017C0.422,-0.016 0.426,-0.013 0.426,-0.008C0.426,-0.002 0.421,0.001 0.41,0.001C0.405,0.001 0.4,0.001 0.396,-0C0.356,-0.001 0.328,-0.002 0.311,-0.002C0.289,-0.002 0.268,-0.002 0.249,-0.001C0.23,-0 0.205,-0 0.175,-0C0.16,-0 0.152,-0.003 0.152,-0.008C0.152,-0.014 0.166,-0.017 0.195,-0.018C0.216,-0.018 0.229,-0.022 0.235,-0.031C0.238,-0.036 0.24,-0.05 0.24,-0.072L0.24,-0.671C0.174,-0.67 0.133,-0.667 0.117,-0.661C0.075,-0.646 0.05,-0.605 0.043,-0.538C0.041,-0.518 0.036,-0.508 0.029,-0.508C0.021,-0.508 0.017,-0.515 0.017,-0.529C0.017,-0.536 0.017,-0.544 0.018,-0.551L0.02,-0.574C0.022,-0.605 0.025,-0.645 0.029,-0.695L0.074,-0.695L0.278,-0.692C0.302,-0.691 0.339,-0.692 0.39,-0.693L0.556,-0.696C0.557,-0.659 0.562,-0.603 0.569,-0.53C0.569,-0.528 0.569,-0.526 0.57,-0.523C0.571,-0.52 0.571,-0.518 0.571,-0.517Z" style="fill:white;fill-rule:nonzero;"/>
        </g>
        <g transform="matrix(41.6667,0,0,41.6667,466.252,404.832)">
            <path d="M0.182,-0.047C0.182,-0.032 0.177,-0.02 0.167,-0.01C0.156,0.001 0.144,0.006 0.129,0.006C0.114,0.006 0.101,0.001 0.091,-0.01C0.08,-0.02 0.075,-0.033 0.075,-0.048C0.075,-0.063 0.08,-0.075 0.091,-0.086C0.101,-0.096 0.114,-0.101 0.129,-0.101C0.144,-0.101 0.156,-0.096 0.167,-0.086C0.177,-0.075 0.182,-0.062 0.182,-0.047Z" style="fill:white;fill-rule:nonzero;"/>
        </g>
        <g transform="matrix(41.6667,0,0,41.6667,501.46,404.832)">
            <path d="M0.493,-0.188C0.493,-0.186 0.492,-0.181 0.491,-0.172C0.488,-0.15 0.482,-0.096 0.475,-0.009L0.474,0.003C0.405,-0 0.327,-0.002 0.239,-0.002C0.192,-0.002 0.147,-0.001 0.106,-0C0.065,0.001 0.047,0.002 0.052,0.002C0.034,0.002 0.025,-0.001 0.025,-0.008C0.025,-0.013 0.042,-0.03 0.077,-0.058C0.16,-0.126 0.22,-0.181 0.255,-0.224C0.316,-0.298 0.347,-0.385 0.347,-0.485C0.347,-0.552 0.333,-0.603 0.305,-0.638C0.284,-0.665 0.254,-0.678 0.215,-0.678C0.177,-0.678 0.147,-0.666 0.125,-0.643C0.108,-0.625 0.099,-0.607 0.099,-0.589C0.099,-0.578 0.108,-0.572 0.126,-0.571C0.173,-0.569 0.196,-0.549 0.196,-0.51C0.196,-0.473 0.177,-0.455 0.138,-0.455C0.113,-0.455 0.094,-0.463 0.079,-0.478C0.064,-0.493 0.057,-0.514 0.057,-0.541C0.057,-0.59 0.074,-0.63 0.109,-0.66C0.144,-0.69 0.189,-0.705 0.246,-0.705C0.303,-0.705 0.35,-0.687 0.387,-0.651C0.43,-0.609 0.452,-0.554 0.452,-0.487C0.452,-0.413 0.427,-0.345 0.378,-0.283C0.329,-0.22 0.246,-0.152 0.129,-0.079C0.173,-0.08 0.228,-0.081 0.295,-0.081C0.35,-0.081 0.385,-0.082 0.4,-0.084C0.415,-0.085 0.428,-0.089 0.439,-0.096C0.448,-0.102 0.456,-0.124 0.463,-0.163C0.468,-0.19 0.474,-0.203 0.483,-0.203C0.49,-0.203 0.493,-0.198 0.493,-0.188Z" style="fill:white;fill-rule:nonzero;"/>
        </g>
        <g transform="matrix(41.6667,0,0,41.6667,532.002,404.832)">
            <path d="M0.498,-0.335C0.498,-0.276 0.489,-0.22 0.472,-0.167C0.454,-0.114 0.43,-0.072 0.399,-0.04C0.366,-0.005 0.325,0.012 0.274,0.012C0.205,0.012 0.148,-0.022 0.103,-0.09C0.058,-0.158 0.035,-0.245 0.035,-0.351C0.035,-0.474 0.067,-0.57 0.13,-0.641C0.168,-0.684 0.215,-0.705 0.27,-0.705C0.335,-0.705 0.387,-0.675 0.426,-0.616C0.474,-0.543 0.498,-0.449 0.498,-0.335ZM0.39,-0.371C0.39,-0.47 0.379,-0.552 0.357,-0.617C0.34,-0.666 0.311,-0.691 0.269,-0.691C0.185,-0.691 0.143,-0.579 0.143,-0.356C0.143,-0.122 0.187,-0.005 0.276,-0.005C0.317,-0.005 0.347,-0.039 0.365,-0.107C0.382,-0.169 0.39,-0.257 0.39,-0.371Z" style="fill:white;fill-rule:nonzero;"/>
        </g>
        <g transform="matrix(41.6667,0,0,41.6667,562.543,404.832)">
            <path d="M0.493,-0.188C0.493,-0.186 0.492,-0.181 0.491,-0.172C0.488,-0.15 0.482,-0.096 0.475,-0.009L0.474,0.003C0.405,-0 0.327,-0.002 0.239,-0.002C0.192,-0.002 0.147,-0.001 0.106,-0C0.065,0.001 0.047,0.002 0.052,0.002C0.034,0.002 0.025,-0.001 0.025,-0.008C0.025,-0.013 0.042,-0.03 0.077,-0.058C0.16,-0.126 0.22,-0.181 0.255,-0.224C0.316,-0.298 0.347,-0.385 0.347,-0.485C0.347,-0.552 0.333,-0.603 0.305,-0.638C0.284,-0.665 0.254,-0.678 0.215,-0.678C0.177,-0.678 0.147,-0.666 0.125,-0.643C0.108,-0.625 0.099,-0.607 0.099,-0.589C0.099,-0.578 0.108,-0.572 0.126,-0.571C0.173,-0.569 0.196,-0.549 0.196,-0.51C0.196,-0.473 0.177,-0.455 0.138,-0.455C0.113,-0.455 0.094,-0.463 0.079,-0.478C0.064,-0.493 0.057,-0.514 0.057,-0.541C0.057,-0.59 0.074,-0.63 0.109,-0.66C0.144,-0.69 0.189,-0.705 0.246,-0.705C0.303,-0.705 0.35,-0.687 0.387,-0.651C0.43,-0.609 0.452,-0.554 0.452,-0.487C0.452,-0.413 0.427,-0.345 0.378,-0.283C0.329,-0.22 0.246,-0.152 0.129,-0.079C0.173,-0.08 0.228,-0.081 0.295,-0.081C0.35,-0.081 0.385,-0.082 0.4,-0.084C0.415,-0.085 0.428,-0.089 0.439,-0.096C0.448,-0.102 0.456,-0.124 0.463,-0.163C0.468,-0.19 0.474,-0.203 0.483,-0.203C0.49,-0.203 0.493,-0.198 0.493,-0.188Z" style="fill:white;fill-rule:nonzero;"/>
        </g>
        <g transform="matrix(41.6667,0,0,41.6667,593.085,404.832)">
            <path d="M0.423,-0.007C0.423,-0.002 0.416,0.001 0.401,0.001L0.351,0.001C0.326,0 0.3,-0 0.274,-0C0.228,-0 0.199,0 0.186,0.001C0.173,0.002 0.163,0.002 0.156,0.002C0.14,0.002 0.132,-0.001 0.132,-0.007C0.132,-0.013 0.137,-0.016 0.146,-0.016C0.161,-0.016 0.176,-0.016 0.193,-0.017C0.214,-0.018 0.225,-0.023 0.227,-0.033C0.228,-0.042 0.229,-0.063 0.229,-0.095L0.229,-0.565C0.229,-0.586 0.228,-0.599 0.227,-0.603C0.226,-0.607 0.221,-0.609 0.213,-0.609C0.21,-0.609 0.188,-0.607 0.148,-0.604C0.14,-0.603 0.135,-0.603 0.132,-0.603C0.124,-0.603 0.12,-0.605 0.12,-0.61C0.12,-0.615 0.124,-0.618 0.132,-0.619C0.163,-0.622 0.195,-0.632 0.227,-0.648C0.259,-0.663 0.285,-0.682 0.304,-0.703C0.311,-0.709 0.316,-0.712 0.319,-0.712C0.324,-0.712 0.327,-0.709 0.327,-0.702L0.327,-0.683C0.326,-0.678 0.326,-0.672 0.326,-0.665L0.326,-0.067C0.326,-0.043 0.327,-0.029 0.33,-0.025C0.332,-0.021 0.34,-0.019 0.354,-0.018L0.377,-0.017L0.394,-0.016L0.409,-0.016C0.418,-0.016 0.423,-0.013 0.423,-0.007Z" style="fill:white;fill-rule:nonzero;"/>
        </g>
    </g>
    <g transform="matrix(1,0,0,1,-71.3892,-298.482)">
        <g transform="matrix(150,0,0,150,64.0392,404.832)">
            <path d="M0.469,-0.195C0.469,-0.138 0.447,-0.089 0.404,-0.049C0.36,-0.008 0.307,0.012 0.246,0.012C0.21,0.012 0.167,0.001 0.117,-0.021C0.104,-0.027 0.094,-0.03 0.087,-0.03C0.079,-0.03 0.074,-0.02 0.072,-0.001C0.071,0.009 0.067,0.014 0.059,0.014C0.052,0.014 0.049,0.01 0.049,0.002C0.049,-0.003 0.049,-0.007 0.05,-0.01C0.055,-0.051 0.058,-0.088 0.058,-0.123C0.058,-0.13 0.057,-0.148 0.056,-0.179C0.055,-0.183 0.055,-0.188 0.055,-0.195C0.055,-0.205 0.059,-0.21 0.067,-0.21C0.074,-0.21 0.078,-0.202 0.081,-0.186C0.098,-0.067 0.155,-0.008 0.25,-0.008C0.291,-0.008 0.322,-0.02 0.345,-0.043C0.367,-0.066 0.378,-0.098 0.378,-0.14C0.378,-0.177 0.367,-0.209 0.346,-0.236C0.324,-0.262 0.287,-0.288 0.234,-0.314C0.171,-0.345 0.127,-0.376 0.102,-0.405C0.077,-0.434 0.065,-0.471 0.065,-0.514C0.065,-0.569 0.083,-0.615 0.119,-0.651C0.154,-0.687 0.199,-0.705 0.254,-0.705C0.277,-0.705 0.308,-0.697 0.348,-0.682C0.362,-0.677 0.372,-0.674 0.379,-0.674C0.386,-0.674 0.391,-0.675 0.394,-0.678C0.396,-0.681 0.398,-0.688 0.4,-0.699C0.401,-0.706 0.405,-0.709 0.411,-0.709C0.418,-0.709 0.421,-0.705 0.421,-0.697C0.421,-0.692 0.421,-0.688 0.42,-0.685C0.418,-0.669 0.417,-0.65 0.417,-0.627C0.417,-0.595 0.419,-0.57 0.422,-0.551L0.423,-0.535C0.424,-0.528 0.421,-0.524 0.414,-0.524C0.407,-0.524 0.402,-0.532 0.399,-0.547C0.392,-0.586 0.374,-0.619 0.347,-0.646C0.32,-0.672 0.289,-0.685 0.255,-0.685C0.222,-0.685 0.195,-0.674 0.176,-0.653C0.156,-0.632 0.146,-0.603 0.146,-0.566C0.146,-0.523 0.16,-0.489 0.189,-0.463C0.205,-0.448 0.24,-0.428 0.293,-0.401C0.356,-0.37 0.401,-0.338 0.428,-0.306C0.455,-0.273 0.469,-0.236 0.469,-0.195Z" style="fill:rgb(44,44,44);fill-rule:nonzero;"/>
        </g>
        <g transform="matrix(150,0,0,150,138.739,404.832)">
            <path d="M0.657,-0.685C0.657,-0.679 0.651,-0.676 0.639,-0.676C0.637,-0.676 0.63,-0.676 0.619,-0.677C0.616,-0.678 0.611,-0.678 0.605,-0.678C0.588,-0.678 0.578,-0.674 0.575,-0.665C0.574,-0.66 0.573,-0.653 0.573,-0.642L0.573,-0.267C0.573,-0.17 0.555,-0.099 0.519,-0.055C0.482,-0.01 0.424,0.012 0.343,0.012C0.246,0.012 0.178,-0.015 0.139,-0.07C0.113,-0.107 0.1,-0.167 0.1,-0.251L0.099,-0.652C0.097,-0.664 0.089,-0.671 0.075,-0.674C0.071,-0.675 0.059,-0.675 0.038,-0.675C0.027,-0.676 0.021,-0.68 0.021,-0.685C0.021,-0.691 0.026,-0.694 0.035,-0.694L0.053,-0.694C0.056,-0.694 0.064,-0.694 0.076,-0.693L0.105,-0.693L0.248,-0.694C0.251,-0.695 0.255,-0.695 0.26,-0.695C0.271,-0.695 0.277,-0.691 0.277,-0.684C0.277,-0.679 0.275,-0.677 0.271,-0.676C0.267,-0.675 0.254,-0.675 0.231,-0.674C0.222,-0.674 0.215,-0.673 0.212,-0.672C0.205,-0.669 0.202,-0.665 0.201,-0.658C0.2,-0.655 0.2,-0.636 0.2,-0.601L0.2,-0.243C0.2,-0.155 0.214,-0.095 0.242,-0.063C0.27,-0.031 0.312,-0.015 0.367,-0.015C0.468,-0.015 0.526,-0.073 0.539,-0.188C0.541,-0.205 0.542,-0.279 0.542,-0.408L0.542,-0.465L0.543,-0.545L0.542,-0.614L0.542,-0.636C0.543,-0.645 0.543,-0.648 0.543,-0.647C0.543,-0.662 0.536,-0.671 0.522,-0.674C0.517,-0.675 0.504,-0.676 0.481,-0.676C0.468,-0.676 0.461,-0.68 0.461,-0.687C0.461,-0.693 0.466,-0.696 0.475,-0.696C0.48,-0.696 0.485,-0.696 0.488,-0.695C0.496,-0.694 0.525,-0.694 0.575,-0.694C0.582,-0.694 0.591,-0.694 0.6,-0.695L0.634,-0.695C0.649,-0.695 0.657,-0.692 0.657,-0.685Z" style="fill:rgb(44,44,44);fill-rule:nonzero;"/>
        </g>
        <g transform="matrix(150,0,0,150,238.639,404.832)">
            <path d="M0.642,-0.685C0.642,-0.678 0.634,-0.675 0.617,-0.676L0.595,-0.677L0.577,-0.677C0.566,-0.677 0.56,-0.675 0.558,-0.672C0.556,-0.668 0.555,-0.657 0.555,-0.638L0.555,-0.062C0.555,-0.027 0.555,-0.006 0.554,-0C0.553,0.006 0.551,0.009 0.548,0.009C0.544,0.009 0.539,0.005 0.534,-0.002L0.406,-0.189C0.332,-0.298 0.242,-0.433 0.136,-0.596L0.137,-0.038C0.138,-0.029 0.143,-0.024 0.152,-0.022C0.161,-0.019 0.184,-0.018 0.219,-0.017C0.228,-0.017 0.232,-0.014 0.232,-0.009C0.232,-0.002 0.223,0.001 0.206,0.001C0.2,0.001 0.181,0 0.149,-0.002C0.138,-0.003 0.128,-0.003 0.118,-0.003C0.119,-0.003 0.113,-0.002 0.101,-0.001C0.088,0 0.069,0.001 0.044,0.001L0.034,0.001C0.019,0.001 0.011,-0.002 0.011,-0.008C0.011,-0.014 0.018,-0.017 0.031,-0.017C0.07,-0.018 0.093,-0.02 0.1,-0.025C0.106,-0.029 0.109,-0.043 0.109,-0.067L0.109,-0.56C0.109,-0.615 0.098,-0.65 0.075,-0.664C0.064,-0.671 0.045,-0.674 0.018,-0.674C0.001,-0.674 -0.008,-0.677 -0.008,-0.684C-0.008,-0.69 -0.003,-0.693 0.007,-0.693C0.02,-0.693 0.037,-0.693 0.058,-0.692C0.079,-0.691 0.09,-0.691 0.091,-0.691C0.093,-0.691 0.102,-0.691 0.119,-0.692C0.141,-0.692 0.162,-0.692 0.183,-0.693L0.528,-0.18L0.528,-0.625C0.528,-0.646 0.528,-0.658 0.527,-0.663C0.526,-0.667 0.524,-0.67 0.519,-0.673C0.514,-0.675 0.498,-0.676 0.471,-0.676C0.447,-0.676 0.435,-0.679 0.435,-0.685C0.435,-0.692 0.443,-0.695 0.459,-0.695L0.522,-0.695C0.533,-0.694 0.539,-0.694 0.541,-0.694C0.542,-0.694 0.548,-0.694 0.559,-0.695L0.62,-0.695C0.635,-0.695 0.642,-0.692 0.642,-0.685Z" style="fill:rgb(44,44,44);fill-rule:nonzero;"/>
        </g>
        <g transform="matrix(150,0,0,150,337.039,404.832)">
            <path d="M0.687,-0.211C0.687,-0.205 0.684,-0.202 0.678,-0.202L0.655,-0.203C0.624,-0.204 0.607,-0.199 0.603,-0.187C0.6,-0.179 0.599,-0.15 0.599,-0.1L0.599,-0.068C0.565,-0.039 0.532,-0.018 0.501,-0.006C0.469,0.006 0.431,0.012 0.387,0.012C0.282,0.012 0.198,-0.02 0.136,-0.083C0.074,-0.146 0.043,-0.231 0.043,-0.339C0.043,-0.448 0.073,-0.537 0.134,-0.604C0.195,-0.671 0.275,-0.705 0.374,-0.705C0.417,-0.705 0.465,-0.693 0.516,-0.669C0.531,-0.662 0.544,-0.658 0.554,-0.658C0.567,-0.658 0.575,-0.666 0.579,-0.682C0.582,-0.691 0.586,-0.696 0.591,-0.696C0.596,-0.696 0.599,-0.693 0.599,-0.688C0.599,-0.686 0.598,-0.679 0.597,-0.667C0.593,-0.629 0.591,-0.602 0.591,-0.585L0.592,-0.52C0.593,-0.497 0.593,-0.486 0.593,-0.489C0.592,-0.473 0.587,-0.465 0.58,-0.465C0.574,-0.465 0.571,-0.47 0.57,-0.479C0.567,-0.544 0.548,-0.595 0.514,-0.632C0.48,-0.669 0.435,-0.687 0.38,-0.687C0.311,-0.687 0.256,-0.656 0.216,-0.594C0.175,-0.532 0.155,-0.448 0.155,-0.341C0.155,-0.238 0.175,-0.157 0.217,-0.097C0.258,-0.036 0.313,-0.006 0.383,-0.006C0.436,-0.006 0.473,-0.021 0.493,-0.052C0.503,-0.067 0.508,-0.095 0.508,-0.135C0.508,-0.168 0.505,-0.188 0.499,-0.194C0.492,-0.2 0.47,-0.203 0.433,-0.202C0.424,-0.202 0.418,-0.203 0.415,-0.204C0.412,-0.205 0.411,-0.207 0.411,-0.21C0.411,-0.217 0.418,-0.221 0.433,-0.221L0.451,-0.221C0.461,-0.219 0.496,-0.218 0.557,-0.219L0.641,-0.22C0.646,-0.22 0.651,-0.22 0.656,-0.221L0.667,-0.221C0.68,-0.221 0.687,-0.218 0.687,-0.211Z" style="fill:rgb(44,44,44);fill-rule:nonzero;"/>
        </g>
        <g transform="matrix(150,0,0,150,436.789,404.832)">
            <path d="M0.555,-0.079C0.555,-0.062 0.554,-0.033 0.552,0.007L0.541,0.007C0.537,0.007 0.527,0.006 0.512,0.005C0.497,0.004 0.479,0.003 0.46,0.003L0.044,-0C0.033,-0 0.027,-0.003 0.027,-0.009C0.027,-0.014 0.036,-0.017 0.054,-0.018C0.079,-0.019 0.094,-0.022 0.1,-0.027C0.105,-0.031 0.107,-0.043 0.107,-0.064L0.107,-0.626C0.107,-0.651 0.105,-0.665 0.1,-0.669C0.094,-0.673 0.077,-0.675 0.046,-0.675C0.033,-0.675 0.027,-0.679 0.027,-0.686C0.027,-0.692 0.031,-0.695 0.039,-0.695L0.048,-0.695C0.07,-0.693 0.114,-0.692 0.179,-0.692C0.185,-0.692 0.197,-0.693 0.214,-0.694C0.231,-0.695 0.246,-0.695 0.257,-0.695L0.268,-0.695C0.28,-0.695 0.286,-0.692 0.286,-0.685C0.286,-0.681 0.284,-0.679 0.281,-0.678C0.277,-0.677 0.265,-0.676 0.246,-0.675C0.227,-0.674 0.215,-0.671 0.212,-0.666C0.208,-0.66 0.206,-0.642 0.206,-0.613L0.206,-0.023C0.224,-0.022 0.249,-0.022 0.281,-0.022C0.359,-0.022 0.414,-0.026 0.446,-0.034C0.478,-0.042 0.5,-0.057 0.511,-0.079C0.522,-0.101 0.529,-0.131 0.531,-0.168C0.532,-0.177 0.536,-0.181 0.543,-0.181C0.552,-0.181 0.556,-0.176 0.555,-0.166L0.554,-0.141L0.554,-0.132C0.555,-0.127 0.555,-0.123 0.555,-0.118L0.555,-0.079Z" style="fill:rgb(44,44,44);fill-rule:nonzero;"/>
        </g>
        <g transform="matrix(150,0,0,150,521.389,404.832)">
            <path d="M0.647,-0.007C0.647,-0.001 0.642,0.002 0.632,0.002C0.625,0.002 0.619,0.002 0.614,0.001L0.487,-0.001L0.36,0.001C0.355,0.002 0.35,0.002 0.345,0.002C0.332,0.002 0.325,-0.001 0.325,-0.008C0.325,-0.015 0.334,-0.019 0.352,-0.019C0.411,-0.02 0.44,-0.026 0.44,-0.037C0.44,-0.038 0.439,-0.04 0.438,-0.045L0.43,-0.072L0.425,-0.086C0.419,-0.107 0.404,-0.152 0.381,-0.223L0.167,-0.223C0.127,-0.116 0.107,-0.055 0.107,-0.039C0.107,-0.03 0.111,-0.024 0.119,-0.022C0.121,-0.021 0.138,-0.02 0.169,-0.018C0.188,-0.017 0.198,-0.014 0.198,-0.008C0.198,-0.001 0.189,0.002 0.172,0.002C0.141,0.002 0.106,0.001 0.065,-0.002C0.055,-0.003 0.045,-0.003 0.034,-0.003C0.023,-0.003 0.013,-0.002 0.003,-0.001C-0.002,-0 -0.007,-0 -0.01,-0C-0.019,-0 -0.024,-0.003 -0.024,-0.009C-0.024,-0.015 -0.014,-0.018 0.008,-0.019C0.028,-0.02 0.044,-0.023 0.053,-0.029C0.062,-0.034 0.07,-0.045 0.075,-0.061C0.161,-0.306 0.231,-0.503 0.285,-0.652C0.286,-0.66 0.289,-0.669 0.293,-0.679L0.298,-0.697C0.3,-0.704 0.303,-0.708 0.306,-0.708C0.308,-0.708 0.31,-0.706 0.311,-0.702C0.32,-0.676 0.339,-0.622 0.37,-0.539C0.394,-0.474 0.454,-0.312 0.549,-0.052C0.554,-0.037 0.561,-0.028 0.57,-0.024C0.578,-0.02 0.595,-0.018 0.621,-0.017C0.638,-0.016 0.647,-0.013 0.647,-0.007ZM0.375,-0.246C0.364,-0.276 0.347,-0.326 0.322,-0.395L0.274,-0.532C0.246,-0.459 0.212,-0.363 0.173,-0.246L0.375,-0.246Z" style="fill:rgb(44,44,44);fill-rule:nonzero;"/>
        </g>
        <g transform="matrix(150,0,0,150,611.689,404.832)">
            <path d="M0.469,-0.195C0.469,-0.138 0.447,-0.089 0.404,-0.049C0.36,-0.008 0.307,0.012 0.246,0.012C0.21,0.012 0.167,0.001 0.117,-0.021C0.104,-0.027 0.094,-0.03 0.087,-0.03C0.079,-0.03 0.074,-0.02 0.072,-0.001C0.071,0.009 0.067,0.014 0.059,0.014C0.052,0.014 0.049,0.01 0.049,0.002C0.049,-0.003 0.049,-0.007 0.05,-0.01C0.055,-0.051 0.058,-0.088 0.058,-0.123C0.058,-0.13 0.057,-0.148 0.056,-0.179C0.055,-0.183 0.055,-0.188 0.055,-0.195C0.055,-0.205 0.059,-0.21 0.067,-0.21C0.074,-0.21 0.078,-0.202 0.081,-0.186C0.098,-0.067 0.155,-0.008 0.25,-0.008C0.291,-0.008 0.322,-0.02 0.345,-0.043C0.367,-0.066 0.378,-0.098 0.378,-0.14C0.378,-0.177 0.367,-0.209 0.346,-0.236C0.324,-0.262 0.287,-0.288 0.234,-0.314C0.171,-0.345 0.127,-0.376 0.102,-0.405C0.077,-0.434 0.065,-0.471 0.065,-0.514C0.065,-0.569 0.083,-0.615 0.119,-0.651C0.154,-0.687 0.199,-0.705 0.254,-0.705C0.277,-0.705 0.308,-0.697 0.348,-0.682C0.362,-0.677 0.372,-0.674 0.379,-0.674C0.386,-0.674 0.391,-0.675 0.394,-0.678C0.396,-0.681 0.398,-0.688 0.4,-0.699C0.401,-0.706 0.405,-0.709 0.411,-0.709C0.418,-0.709 0.421,-0.705 0.421,-0.697C0.421,-0.692 0.421,-0.688 0.42,-0.685C0.418,-0.669 0.417,-0.65 0.417,-0.627C0.417,-0.595 0.419,-0.57 0.422,-0.551L0.423,-0.535C0.424,-0.528 0.421,-0.524 0.414,-0.524C0.407,-0.524 0.402,-0.532 0.399,-0.547C0.392,-0.586 0.374,-0.619 0.347,-0.646C0.32,-0.672 0.289,-0.685 0.255,-0.685C0.222,-0.685 0.195,-0.674 0.176,-0.653C0.156,-0.632 0.146,-0.603 0.146,-0.566C0.146,-0.523 0.16,-0.489 0.189,-0.463C0.205,-0.448 0.24,-0.428 0.293,-0.401C0.356,-0.37 0.401,-0.338 0.428,-0.306C0.455,-0.273 0.469,-0.236 0.469,-0.195Z" style="fill:rgb(44,44,44);fill-rule:nonzero;"/>
        </g>
        <g transform="matrix(150,0,0,150,686.389,404.832)">
            <path d="M0.469,-0.195C0.469,-0.138 0.447,-0.089 0.404,-0.049C0.36,-0.008 0.307,0.012 0.246,0.012C0.21,0.012 0.167,0.001 0.117,-0.021C0.104,-0.027 0.094,-0.03 0.087,-0.03C0.079,-0.03 0.074,-0.02 0.072,-0.001C0.071,0.009 0.067,0.014 0.059,0.014C0.052,0.014 0.049,0.01 0.049,0.002C0.049,-0.003 0.049,-0.007 0.05,-0.01C0.055,-0.051 0.058,-0.088 0.058,-0.123C0.058,-0.13 0.057,-0.148 0.056,-0.179C0.055,-0.183 0.055,-0.188 0.055,-0.195C0.055,-0.205 0.059,-0.21 0.067,-0.21C0.074,-0.21 0.078,-0.202 0.081,-0.186C0.098,-0.067 0.155,-0.008 0.25,-0.008C0.291,-0.008 0.322,-0.02 0.345,-0.043C0.367,-0.066 0.378,-0.098 0.378,-0.14C0.378,-0.177 0.367,-0.209 0.346,-0.236C0.324,-0.262 0.287,-0.288 0.234,-0.314C0.171,-0.345 0.127,-0.376 0.102,-0.405C0.077,-0.434 0.065,-0.471 0.065,-0.514C0.065,-0.569 0.083,-0.615 0.119,-0.651C0.154,-0.687 0.199,-0.705 0.254,-0.705C0.277,-0.705 0.308,-0.697 0.348,-0.682C0.362,-0.677 0.372,-0.674 0.379,-0.674C0.386,-0.674 0.391,-0.675 0.394,-0.678C0.396,-0.681 0.398,-0.688 0.4,-0.699C0.401,-0.706 0.405,-0.709 0.411,-0.709C0.418,-0.709 0.421,-0.705 0.421,-0.697C0.421,-0.692 0.421,-0.688 0.42,-0.685C0.418,-0.669 0.417,-0.65 0.417,-0.627C0.417,-0.595 0.419,-0.57 0.422,-0.551L0.423,-0.535C0.424,-0.528 0.421,-0.524 0.414,-0.524C0.407,-0.524 0.402,-0.532 0.399,-0.547C0.392,-0.586 0.374,-0.619 0.347,-0.646C0.32,-0.672 0.289,-0.685 0.255,-0.685C0.222,-0.685 0.195,-0.674 0.176,-0.653C0.156,-0.632 0.146,-0.603 0.146,-0.566C0.146,-0.523 0.16,-0.489 0.189,-0.463C0.205,-0.448 0.24,-0.428 0.293,-0.401C0.356,-0.37 0.401,-0.338 0.428,-0.306C0.455,-0.273 0.469,-0.236 0.469,-0.195Z" style="fill:rgb(44,44,44);fill-rule:nonzero;"/>
        </g>
        <g transform="matrix(150,0,0,150,761.089,404.832)">
            <path d="M0.562,-0.162C0.562,-0.159 0.561,-0.143 0.56,-0.113C0.559,-0.083 0.558,-0.054 0.558,-0.027L0.558,0.006C0.493,0.003 0.363,0.001 0.17,0.001C0.147,0.001 0.124,0.001 0.101,0.002L0.045,0.002C0.032,0.002 0.026,-0.001 0.026,-0.007C0.026,-0.011 0.028,-0.013 0.032,-0.014C0.034,-0.014 0.047,-0.015 0.07,-0.017C0.087,-0.018 0.098,-0.022 0.102,-0.028C0.105,-0.034 0.107,-0.05 0.107,-0.075L0.107,-0.637C0.107,-0.656 0.104,-0.668 0.099,-0.672C0.093,-0.675 0.075,-0.677 0.044,-0.677C0.033,-0.677 0.028,-0.68 0.028,-0.686C0.028,-0.692 0.035,-0.695 0.05,-0.695L0.221,-0.694C0.227,-0.694 0.265,-0.694 0.334,-0.695L0.474,-0.695C0.494,-0.695 0.512,-0.696 0.529,-0.699C0.53,-0.67 0.533,-0.631 0.538,-0.58L0.542,-0.537C0.543,-0.534 0.543,-0.529 0.543,-0.524C0.543,-0.517 0.54,-0.514 0.534,-0.514C0.527,-0.514 0.521,-0.522 0.518,-0.539C0.505,-0.599 0.485,-0.637 0.456,-0.653C0.435,-0.665 0.379,-0.671 0.288,-0.671L0.206,-0.671L0.206,-0.378L0.23,-0.378C0.305,-0.378 0.35,-0.384 0.367,-0.395C0.383,-0.406 0.394,-0.439 0.4,-0.494C0.401,-0.508 0.405,-0.515 0.411,-0.515C0.418,-0.515 0.422,-0.509 0.422,-0.497C0.422,-0.485 0.421,-0.467 0.42,-0.444C0.419,-0.421 0.418,-0.403 0.418,-0.391C0.418,-0.32 0.419,-0.271 0.422,-0.244C0.423,-0.237 0.423,-0.232 0.423,-0.227C0.423,-0.218 0.419,-0.214 0.412,-0.214C0.407,-0.214 0.404,-0.217 0.403,-0.223C0.401,-0.228 0.398,-0.247 0.394,-0.278C0.389,-0.317 0.372,-0.342 0.345,-0.351C0.333,-0.355 0.302,-0.357 0.251,-0.357L0.206,-0.357L0.206,-0.021C0.353,-0.021 0.439,-0.024 0.464,-0.03C0.508,-0.04 0.533,-0.083 0.539,-0.158C0.54,-0.175 0.545,-0.183 0.552,-0.183C0.559,-0.183 0.562,-0.176 0.562,-0.162Z" style="fill:rgb(44,44,44);fill-rule:nonzero;"/>
        </g>
        <g transform="matrix(150,0,0,150,848.389,404.832)">
            <path d="M0.469,-0.195C0.469,-0.138 0.447,-0.089 0.404,-0.049C0.36,-0.008 0.307,0.012 0.246,0.012C0.21,0.012 0.167,0.001 0.117,-0.021C0.104,-0.027 0.094,-0.03 0.087,-0.03C0.079,-0.03 0.074,-0.02 0.072,-0.001C0.071,0.009 0.067,0.014 0.059,0.014C0.052,0.014 0.049,0.01 0.049,0.002C0.049,-0.003 0.049,-0.007 0.05,-0.01C0.055,-0.051 0.058,-0.088 0.058,-0.123C0.058,-0.13 0.057,-0.148 0.056,-0.179C0.055,-0.183 0.055,-0.188 0.055,-0.195C0.055,-0.205 0.059,-0.21 0.067,-0.21C0.074,-0.21 0.078,-0.202 0.081,-0.186C0.098,-0.067 0.155,-0.008 0.25,-0.008C0.291,-0.008 0.322,-0.02 0.345,-0.043C0.367,-0.066 0.378,-0.098 0.378,-0.14C0.378,-0.177 0.367,-0.209 0.346,-0.236C0.324,-0.262 0.287,-0.288 0.234,-0.314C0.171,-0.345 0.127,-0.376 0.102,-0.405C0.077,-0.434 0.065,-0.471 0.065,-0.514C0.065,-0.569 0.083,-0.615 0.119,-0.651C0.154,-0.687 0.199,-0.705 0.254,-0.705C0.277,-0.705 0.308,-0.697 0.348,-0.682C0.362,-0.677 0.372,-0.674 0.379,-0.674C0.386,-0.674 0.391,-0.675 0.394,-0.678C0.396,-0.681 0.398,-0.688 0.4,-0.699C0.401,-0.706 0.405,-0.709 0.411,-0.709C0.418,-0.709 0.421,-0.705 0.421,-0.697C0.421,-0.692 0.421,-0.688 0.42,-0.685C0.418,-0.669 0.417,-0.65 0.417,-0.627C0.417,-0.595 0.419,-0.57 0.422,-0.551L0.423,-0.535C0.424,-0.528 0.421,-0.524 0.414,-0.524C0.407,-0.524 0.402,-0.532 0.399,-0.547C0.392,-0.586 0.374,-0.619 0.347,-0.646C0.32,-0.672 0.289,-0.685 0.255,-0.685C0.222,-0.685 0.195,-0.674 0.176,-0.653C0.156,-0.632 0.146,-0.603 0.146,-0.566C0.146,-0.523 0.16,-0.489 0.189,-0.463C0.205,-0.448 0.24,-0.428 0.293,-0.401C0.356,-0.37 0.401,-0.338 0.428,-0.306C0.455,-0.273 0.469,-0.236 0.469,-0.195Z" style="fill:rgb(44,44,44);fill-rule:nonzero;"/>
        </g>
        <g transform="matrix(150,0,0,150,202.789,529.832)">
            <path d="M0.562,-0.162C0.562,-0.159 0.561,-0.143 0.56,-0.113C0.559,-0.083 0.558,-0.054 0.558,-0.027L0.558,0.006C0.493,0.003 0.363,0.001 0.17,0.001C0.147,0.001 0.124,0.001 0.101,0.002L0.045,0.002C0.032,0.002 0.026,-0.001 0.026,-0.007C0.026,-0.011 0.028,-0.013 0.032,-0.014C0.034,-0.014 0.047,-0.015 0.07,-0.017C0.087,-0.018 0.098,-0.022 0.102,-0.028C0.105,-0.034 0.107,-0.05 0.107,-0.075L0.107,-0.637C0.107,-0.656 0.104,-0.668 0.099,-0.672C0.093,-0.675 0.075,-0.677 0.044,-0.677C0.033,-0.677 0.028,-0.68 0.028,-0.686C0.028,-0.692 0.035,-0.695 0.05,-0.695L0.221,-0.694C0.227,-0.694 0.265,-0.694 0.334,-0.695L0.474,-0.695C0.494,-0.695 0.512,-0.696 0.529,-0.699C0.53,-0.67 0.533,-0.631 0.538,-0.58L0.542,-0.537C0.543,-0.534 0.543,-0.529 0.543,-0.524C0.543,-0.517 0.54,-0.514 0.534,-0.514C0.527,-0.514 0.521,-0.522 0.518,-0.539C0.505,-0.599 0.485,-0.637 0.456,-0.653C0.435,-0.665 0.379,-0.671 0.288,-0.671L0.206,-0.671L0.206,-0.378L0.23,-0.378C0.305,-0.378 0.35,-0.384 0.367,-0.395C0.383,-0.406 0.394,-0.439 0.4,-0.494C0.401,-0.508 0.405,-0.515 0.411,-0.515C0.418,-0.515 0.422,-0.509 0.422,-0.497C0.422,-0.485 0.421,-0.467 0.42,-0.444C0.419,-0.421 0.418,-0.403 0.418,-0.391C0.418,-0.32 0.419,-0.271 0.422,-0.244C0.423,-0.237 0.423,-0.232 0.423,-0.227C0.423,-0.218 0.419,-0.214 0.412,-0.214C0.407,-0.214 0.404,-0.217 0.403,-0.223C0.401,-0.228 0.398,-0.247 0.394,-0.278C0.389,-0.317 0.372,-0.342 0.345,-0.351C0.333,-0.355 0.302,-0.357 0.251,-0.357L0.206,-0.357L0.206,-0.021C0.353,-0.021 0.439,-0.024 0.464,-0.03C0.508,-0.04 0.533,-0.083 0.539,-0.158C0.54,-0.175 0.545,-0.183 0.552,-0.183C0.559,-0.183 0.562,-0.176 0.562,-0.162Z" style="fill:rgb(44,44,44);fill-rule:nonzero;"/>
        </g>
        <g transform="matrix(150,0,0,150,290.089,529.832)">
            <path d="M0.644,-0.009C0.644,-0.003 0.635,-0 0.616,-0C0.593,-0 0.57,-0 0.547,-0.001C0.523,-0.002 0.5,-0.002 0.477,-0.002C0.448,-0.002 0.414,-0.001 0.375,-0C0.356,0.001 0.341,0.001 0.332,0.001C0.313,0.001 0.303,-0.003 0.303,-0.01C0.303,-0.017 0.311,-0.02 0.326,-0.019L0.371,-0.018C0.387,-0.017 0.397,-0.018 0.4,-0.019C0.41,-0.021 0.415,-0.027 0.415,-0.038C0.415,-0.048 0.407,-0.07 0.39,-0.103L0.283,-0.319L0.157,-0.106C0.135,-0.069 0.124,-0.047 0.124,-0.04C0.124,-0.028 0.135,-0.021 0.157,-0.019C0.156,-0.019 0.171,-0.019 0.202,-0.019C0.214,-0.019 0.22,-0.016 0.22,-0.009C0.22,-0.003 0.215,-0 0.205,-0L0.092,-0.001L0.007,-0C-0.004,-0 -0.009,-0.003 -0.009,-0.009C-0.009,-0.015 -0,-0.019 0.017,-0.021C0.029,-0.022 0.041,-0.024 0.053,-0.025C0.063,-0.028 0.071,-0.032 0.078,-0.038C0.091,-0.049 0.132,-0.115 0.201,-0.234C0.226,-0.278 0.249,-0.316 0.269,-0.349L0.155,-0.563C0.132,-0.607 0.115,-0.635 0.107,-0.649C0.097,-0.662 0.088,-0.67 0.078,-0.674C0.067,-0.676 0.046,-0.677 0.015,-0.677C0.007,-0.677 0.003,-0.68 0.003,-0.685C0.003,-0.692 0.008,-0.696 0.019,-0.696C0.034,-0.696 0.064,-0.695 0.11,-0.694C0.133,-0.693 0.148,-0.693 0.157,-0.693C0.235,-0.693 0.278,-0.694 0.286,-0.695L0.3,-0.695C0.314,-0.695 0.321,-0.692 0.321,-0.687C0.321,-0.68 0.309,-0.676 0.285,-0.676C0.24,-0.677 0.218,-0.671 0.218,-0.66C0.218,-0.648 0.256,-0.57 0.332,-0.426C0.359,-0.466 0.389,-0.514 0.422,-0.569C0.455,-0.624 0.471,-0.654 0.471,-0.661C0.471,-0.671 0.453,-0.676 0.416,-0.676C0.398,-0.676 0.389,-0.679 0.389,-0.685C0.389,-0.692 0.395,-0.695 0.408,-0.695C0.417,-0.695 0.429,-0.695 0.446,-0.694C0.463,-0.693 0.475,-0.693 0.484,-0.693C0.487,-0.693 0.503,-0.694 0.531,-0.695C0.558,-0.696 0.574,-0.696 0.579,-0.696L0.588,-0.696C0.599,-0.696 0.605,-0.693 0.605,-0.687C0.605,-0.681 0.601,-0.678 0.592,-0.678C0.591,-0.678 0.58,-0.678 0.56,-0.677C0.537,-0.676 0.522,-0.672 0.514,-0.665C0.505,-0.658 0.491,-0.636 0.471,-0.601C0.445,-0.554 0.407,-0.493 0.357,-0.416L0.346,-0.399C0.351,-0.39 0.396,-0.303 0.481,-0.136C0.51,-0.079 0.531,-0.045 0.544,-0.034C0.557,-0.023 0.582,-0.017 0.619,-0.018C0.636,-0.018 0.644,-0.015 0.644,-0.009Z" style="fill:rgb(44,44,44);fill-rule:nonzero;"/>
        </g>
        <g transform="matrix(150,0,0,150,383.839,529.832)">
            <path d="M0.498,-0.528C0.498,-0.463 0.47,-0.413 0.415,-0.377C0.38,-0.354 0.336,-0.343 0.283,-0.343C0.26,-0.343 0.235,-0.345 0.206,-0.35L0.206,-0.066C0.206,-0.051 0.207,-0.041 0.208,-0.037C0.211,-0.028 0.219,-0.022 0.23,-0.02C0.249,-0.017 0.268,-0.016 0.286,-0.016C0.293,-0.016 0.297,-0.014 0.297,-0.009C0.297,-0.002 0.292,0.001 0.283,0.001C0.279,0.001 0.276,0.001 0.273,-0C0.236,0.001 0.167,0.001 0.066,0.001L0.053,0.001C0.033,0.001 0.023,-0.002 0.023,-0.009C0.023,-0.014 0.03,-0.016 0.044,-0.016C0.075,-0.016 0.093,-0.019 0.098,-0.025C0.103,-0.028 0.106,-0.034 0.107,-0.045L0.107,-0.635C0.107,-0.656 0.101,-0.668 0.09,-0.673C0.083,-0.676 0.072,-0.677 0.055,-0.677L0.045,-0.677C0.043,-0.676 0.041,-0.676 0.038,-0.676C0.028,-0.676 0.023,-0.679 0.023,-0.685C0.023,-0.692 0.032,-0.695 0.051,-0.695L0.271,-0.695C0.347,-0.695 0.403,-0.682 0.438,-0.655C0.478,-0.625 0.498,-0.583 0.498,-0.528ZM0.393,-0.526C0.393,-0.626 0.351,-0.676 0.267,-0.676C0.239,-0.676 0.221,-0.671 0.212,-0.662C0.208,-0.658 0.206,-0.648 0.206,-0.631L0.206,-0.365C0.211,-0.364 0.217,-0.364 0.224,-0.364C0.268,-0.364 0.305,-0.374 0.336,-0.393C0.374,-0.417 0.393,-0.461 0.393,-0.526Z" style="fill:rgb(44,44,44);fill-rule:nonzero;"/>
        </g>
        <g transform="matrix(150,0,0,150,459.439,529.832)">
            <path d="M0.594,-0.03C0.594,-0.002 0.571,0.012 0.524,0.012C0.472,0.012 0.431,-0.01 0.402,-0.053C0.389,-0.072 0.381,-0.09 0.378,-0.107C0.374,-0.124 0.368,-0.168 0.361,-0.239C0.357,-0.282 0.343,-0.312 0.32,-0.33C0.297,-0.347 0.259,-0.357 0.206,-0.358L0.206,-0.043C0.206,-0.03 0.217,-0.021 0.238,-0.018C0.244,-0.017 0.259,-0.017 0.284,-0.016C0.293,-0.016 0.297,-0.013 0.297,-0.008C0.297,-0.002 0.291,0.001 0.28,0.001L0.268,0.001C0.262,0 0.233,-0 0.181,-0C0.171,-0 0.154,0 0.13,0.001L0.045,0.001C0.03,0.001 0.023,-0.002 0.023,-0.008C0.023,-0.013 0.033,-0.015 0.052,-0.016C0.083,-0.017 0.1,-0.021 0.103,-0.028C0.106,-0.031 0.107,-0.044 0.107,-0.067L0.107,-0.619C0.107,-0.646 0.104,-0.662 0.099,-0.667C0.093,-0.672 0.076,-0.675 0.047,-0.676C0.03,-0.676 0.022,-0.679 0.022,-0.685C0.022,-0.692 0.027,-0.695 0.038,-0.695C0.04,-0.695 0.043,-0.695 0.047,-0.694L0.18,-0.691C0.193,-0.691 0.212,-0.691 0.236,-0.692C0.263,-0.693 0.281,-0.694 0.292,-0.694C0.354,-0.694 0.403,-0.68 0.44,-0.653C0.476,-0.625 0.494,-0.587 0.494,-0.54C0.494,-0.493 0.475,-0.455 0.438,-0.425C0.401,-0.394 0.35,-0.376 0.286,-0.371C0.28,-0.37 0.277,-0.369 0.276,-0.368C0.276,-0.365 0.279,-0.364 0.286,-0.364C0.356,-0.352 0.404,-0.328 0.431,-0.291C0.457,-0.254 0.474,-0.187 0.483,-0.09C0.488,-0.035 0.507,-0.008 0.539,-0.008C0.549,-0.008 0.554,-0.01 0.554,-0.014C0.554,-0.015 0.554,-0.015 0.553,-0.016C0.55,-0.023 0.548,-0.029 0.548,-0.034C0.548,-0.048 0.555,-0.055 0.57,-0.055C0.586,-0.055 0.594,-0.047 0.594,-0.03ZM0.387,-0.531C0.387,-0.626 0.346,-0.674 0.263,-0.674C0.241,-0.674 0.226,-0.671 0.218,-0.665C0.21,-0.659 0.206,-0.648 0.206,-0.633L0.206,-0.379C0.27,-0.378 0.316,-0.39 0.345,-0.414C0.373,-0.438 0.387,-0.477 0.387,-0.531Z" style="fill:rgb(44,44,44);fill-rule:nonzero;"/>
        </g>
        <g transform="matrix(150,0,0,150,547.639,529.832)">
            <path d="M0.562,-0.162C0.562,-0.159 0.561,-0.143 0.56,-0.113C0.559,-0.083 0.558,-0.054 0.558,-0.027L0.558,0.006C0.493,0.003 0.363,0.001 0.17,0.001C0.147,0.001 0.124,0.001 0.101,0.002L0.045,0.002C0.032,0.002 0.026,-0.001 0.026,-0.007C0.026,-0.011 0.028,-0.013 0.032,-0.014C0.034,-0.014 0.047,-0.015 0.07,-0.017C0.087,-0.018 0.098,-0.022 0.102,-0.028C0.105,-0.034 0.107,-0.05 0.107,-0.075L0.107,-0.637C0.107,-0.656 0.104,-0.668 0.099,-0.672C0.093,-0.675 0.075,-0.677 0.044,-0.677C0.033,-0.677 0.028,-0.68 0.028,-0.686C0.028,-0.692 0.035,-0.695 0.05,-0.695L0.221,-0.694C0.227,-0.694 0.265,-0.694 0.334,-0.695L0.474,-0.695C0.494,-0.695 0.512,-0.696 0.529,-0.699C0.53,-0.67 0.533,-0.631 0.538,-0.58L0.542,-0.537C0.543,-0.534 0.543,-0.529 0.543,-0.524C0.543,-0.517 0.54,-0.514 0.534,-0.514C0.527,-0.514 0.521,-0.522 0.518,-0.539C0.505,-0.599 0.485,-0.637 0.456,-0.653C0.435,-0.665 0.379,-0.671 0.288,-0.671L0.206,-0.671L0.206,-0.378L0.23,-0.378C0.305,-0.378 0.35,-0.384 0.367,-0.395C0.383,-0.406 0.394,-0.439 0.4,-0.494C0.401,-0.508 0.405,-0.515 0.411,-0.515C0.418,-0.515 0.422,-0.509 0.422,-0.497C0.422,-0.485 0.421,-0.467 0.42,-0.444C0.419,-0.421 0.418,-0.403 0.418,-0.391C0.418,-0.32 0.419,-0.271 0.422,-0.244C0.423,-0.237 0.423,-0.232 0.423,-0.227C0.423,-0.218 0.419,-0.214 0.412,-0.214C0.407,-0.214 0.404,-0.217 0.403,-0.223C0.401,-0.228 0.398,-0.247 0.394,-0.278C0.389,-0.317 0.372,-0.342 0.345,-0.351C0.333,-0.355 0.302,-0.357 0.251,-0.357L0.206,-0.357L0.206,-0.021C0.353,-0.021 0.439,-0.024 0.464,-0.03C0.508,-0.04 0.533,-0.083 0.539,-0.158C0.54,-0.175 0.545,-0.183 0.552,-0.183C0.559,-0.183 0.562,-0.176 0.562,-0.162Z" style="fill:rgb(44,44,44);fill-rule:nonzero;"/>
        </g>
        <g transform="matrix(150,0,0,150,634.939,529.832)">
            <path d="M0.469,-0.195C0.469,-0.138 0.447,-0.089 0.404,-0.049C0.36,-0.008 0.307,0.012 0.246,0.012C0.21,0.012 0.167,0.001 0.117,-0.021C0.104,-0.027 0.094,-0.03 0.087,-0.03C0.079,-0.03 0.074,-0.02 0.072,-0.001C0.071,0.009 0.067,0.014 0.059,0.014C0.052,0.014 0.049,0.01 0.049,0.002C0.049,-0.003 0.049,-0.007 0.05,-0.01C0.055,-0.051 0.058,-0.088 0.058,-0.123C0.058,-0.13 0.057,-0.148 0.056,-0.179C0.055,-0.183 0.055,-0.188 0.055,-0.195C0.055,-0.205 0.059,-0.21 0.067,-0.21C0.074,-0.21 0.078,-0.202 0.081,-0.186C0.098,-0.067 0.155,-0.008 0.25,-0.008C0.291,-0.008 0.322,-0.02 0.345,-0.043C0.367,-0.066 0.378,-0.098 0.378,-0.14C0.378,-0.177 0.367,-0.209 0.346,-0.236C0.324,-0.262 0.287,-0.288 0.234,-0.314C0.171,-0.345 0.127,-0.376 0.102,-0.405C0.077,-0.434 0.065,-0.471 0.065,-0.514C0.065,-0.569 0.083,-0.615 0.119,-0.651C0.154,-0.687 0.199,-0.705 0.254,-0.705C0.277,-0.705 0.308,-0.697 0.348,-0.682C0.362,-0.677 0.372,-0.674 0.379,-0.674C0.386,-0.674 0.391,-0.675 0.394,-0.678C0.396,-0.681 0.398,-0.688 0.4,-0.699C0.401,-0.706 0.405,-0.709 0.411,-0.709C0.418,-0.709 0.421,-0.705 0.421,-0.697C0.421,-0.692 0.421,-0.688 0.42,-0.685C0.418,-0.669 0.417,-0.65 0.417,-0.627C0.417,-0.595 0.419,-0.57 0.422,-0.551L0.423,-0.535C0.424,-0.528 0.421,-0.524 0.414,-0.524C0.407,-0.524 0.402,-0.532 0.399,-0.547C0.392,-0.586 0.374,-0.619 0.347,-0.646C0.32,-0.672 0.289,-0.685 0.255,-0.685C0.222,-0.685 0.195,-0.674 0.176,-0.653C0.156,-0.632 0.146,-0.603 0.146,-0.566C0.146,-0.523 0.16,-0.489 0.189,-0.463C0.205,-0.448 0.24,-0.428 0.293,-0.401C0.356,-0.37 0.401,-0.338 0.428,-0.306C0.455,-0.273 0.469,-0.236 0.469,-0.195Z" style="fill:rgb(44,44,44);fill-rule:nonzero;"/>
        </g>
        <g transform="matrix(150,0,0,150,709.639,529.832)">
            <path d="M0.469,-0.195C0.469,-0.138 0.447,-0.089 0.404,-0.049C0.36,-0.008 0.307,0.012 0.246,0.012C0.21,0.012 0.167,0.001 0.117,-0.021C0.104,-0.027 0.094,-0.03 0.087,-0.03C0.079,-0.03 0.074,-0.02 0.072,-0.001C0.071,0.009 0.067,0.014 0.059,0.014C0.052,0.014 0.049,0.01 0.049,0.002C0.049,-0.003 0.049,-0.007 0.05,-0.01C0.055,-0.051 0.058,-0.088 0.058,-0.123C0.058,-0.13 0.057,-0.148 0.056,-0.179C0.055,-0.183 0.055,-0.188 0.055,-0.195C0.055,-0.205 0.059,-0.21 0.067,-0.21C0.074,-0.21 0.078,-0.202 0.081,-0.186C0.098,-0.067 0.155,-0.008 0.25,-0.008C0.291,-0.008 0.322,-0.02 0.345,-0.043C0.367,-0.066 0.378,-0.098 0.378,-0.14C0.378,-0.177 0.367,-0.209 0.346,-0.236C0.324,-0.262 0.287,-0.288 0.234,-0.314C0.171,-0.345 0.127,-0.376 0.102,-0.405C0.077,-0.434 0.065,-0.471 0.065,-0.514C0.065,-0.569 0.083,-0.615 0.119,-0.651C0.154,-0.687 0.199,-0.705 0.254,-0.705C0.277,-0.705 0.308,-0.697 0.348,-0.682C0.362,-0.677 0.372,-0.674 0.379,-0.674C0.386,-0.674 0.391,-0.675 0.394,-0.678C0.396,-0.681 0.398,-0.688 0.4,-0.699C0.401,-0.706 0.405,-0.709 0.411,-0.709C0.418,-0.709 0.421,-0.705 0.421,-0.697C0.421,-0.692 0.421,-0.688 0.42,-0.685C0.418,-0.669 0.417,-0.65 0.417,-0.627C0.417,-0.595 0.419,-0.57 0.422,-0.551L0.423,-0.535C0.424,-0.528 0.421,-0.524 0.414,-0.524C0.407,-0.524 0.402,-0.532 0.399,-0.547C0.392,-0.586 0.374,-0.619 0.347,-0.646C0.32,-0.672 0.289,-0.685 0.255,-0.685C0.222,-0.685 0.195,-0.674 0.176,-0.653C0.156,-0.632 0.146,-0.603 0.146,-0.566C0.146,-0.523 0.16,-0.489 0.189,-0.463C0.205,-0.448 0.24,-0.428 0.293,-0.401C0.356,-0.37 0.401,-0.338 0.428,-0.306C0.455,-0.273 0.469,-0.236 0.469,-0.195Z" style="fill:rgb(44,44,44);fill-rule:nonzero;"/>
        </g>
    </g>
</svg>
